<svg version="1.1" id="Layer_1" xmlns="http://www.w3.org/2000/svg" xmlns:xlink="http://www.w3.org/1999/xlink" x="0px" y="0px"
	 width="100%" viewBox="0 0 1080 1080" enable-background="new 0 0 1080 1080" xml:space="preserve">
<path fill="#000000" opacity="1.000000" stroke="none" 
	d="
M495.000000,1081.000000 
	C330.018982,1081.000000 165.537964,1081.000000 1.028474,1081.000000 
	C1.028474,721.060547 1.028474,361.121063 1.028474,1.090787 
	C360.897919,1.090787 720.795898,1.090787 1080.846924,1.090787 
	C1080.846924,360.999939 1080.846924,720.999939 1080.846924,1081.000000 
	C885.787292,1081.000000 690.643616,1081.000000 495.000000,1081.000000 
M726.088928,473.760559 
	C727.118591,470.953888 728.037903,468.100830 729.195007,465.347748 
	C740.379333,438.737823 757.717957,417.470428 783.438599,403.703156 
	C796.934753,396.479187 811.377625,392.315308 826.612854,392.159698 
	C820.127930,363.906891 819.749329,336.014282 826.018311,308.025085 
	C741.587341,322.011688 656.866760,323.013306 572.206177,308.911224 
	C579.415894,336.065247 578.808594,363.955658 572.455933,392.345398 
	C575.409424,392.345398 578.243225,392.148651 581.041260,392.381256 
	C590.487427,393.166534 600.025818,393.505493 609.333008,395.134308 
	C621.131836,397.199097 626.772217,407.203766 623.064941,418.670929 
	C621.551270,423.352966 619.366882,427.977875 616.668884,432.091827 
	C596.969055,462.130829 570.206726,484.425507 539.161987,501.899780 
	C537.807617,502.662109 535.999023,502.844727 534.390076,502.892426 
	C518.568420,503.361542 502.745117,504.010193 486.920349,504.067047 
	C474.618896,504.111237 462.313629,503.418640 450.012512,502.983398 
	C446.775269,502.868835 445.059998,501.453339 444.916229,497.764221 
	C444.067261,475.975464 442.452484,454.203003 442.147919,432.410339 
	C441.834595,409.989044 454.554016,396.358948 476.998840,393.907898 
	C487.391907,392.772919 497.869446,392.411530 508.774445,391.667664 
	C501.241516,363.786163 501.992371,335.815674 508.316589,308.362854 
	C414.531097,322.348175 321.334564,322.216400 228.062912,308.359192 
	C234.092499,336.138397 235.518295,363.953552 227.679138,391.646332 
	C238.429108,392.443756 248.625778,392.586639 258.623444,394.070343 
	C279.002686,397.094788 294.605225,408.736176 294.275574,431.833252 
	C293.938599,455.446838 292.959167,479.129486 290.546631,502.605713 
	C289.116089,516.526489 286.225433,531.184265 269.972260,537.408386 
	C280.529968,542.184265 284.391388,551.244385 286.840240,560.870850 
	C294.343201,590.364624 295.222778,620.514526 294.084167,650.679199 
	C293.279541,671.995850 281.744507,684.893127 260.815216,688.970215 
	C250.106293,691.056335 239.135025,691.795593 227.776245,693.206543 
	C235.280212,720.623291 234.444733,748.713257 227.926041,776.481750 
	C321.897491,766.322083 415.097809,766.308105 508.650574,776.519592 
	C501.329254,748.417053 501.752777,720.451294 508.690735,692.924622 
	C498.024902,691.920410 487.884003,691.356445 477.862915,689.943054 
	C455.040985,686.724060 443.053986,674.958252 442.462006,652.131042 
	C441.884735,629.872803 443.229736,607.511414 444.795990,585.270386 
	C445.759918,571.582397 446.664948,571.685791 460.355011,568.885986 
	C479.595764,564.951111 499.069183,565.118164 518.580078,565.094543 
	C550.311096,565.056152 578.984741,574.250671 604.086121,593.480164 
	C621.315369,606.679016 634.303650,622.632751 632.039673,646.517883 
	C630.827393,659.307495 629.116760,671.837280 619.087463,681.116272 
	C614.489441,685.370422 609.184143,688.860107 604.199829,692.696350 
	C620.599731,713.463379 623.726990,744.887207 612.733459,775.276428 
	C691.463501,767.088135 770.569580,765.898010 848.932068,776.233948 
	C844.112976,748.437378 844.540222,720.419250 848.678223,692.315796 
	C822.226624,690.941345 801.784729,678.409546 786.807739,656.784973 
	C771.900696,635.261414 768.327820,611.279663 773.043640,586.433960 
	C723.994995,578.293396 678.931091,561.553528 637.341187,533.200684 
	C664.305725,514.138855 692.145386,500.500397 722.223083,493.012238 
	C723.520874,486.574585 724.732361,480.564819 726.088928,473.760559 
z"/>
<path fill="#FEFEFE" opacity="1.000000" stroke="none" 
	d="
M726.016418,474.157837 
	C724.732361,480.564819 723.520874,486.574585 722.223083,493.012238 
	C692.145386,500.500397 664.305725,514.138855 637.341187,533.200684 
	C678.931091,561.553528 723.994995,578.293396 773.043640,586.433960 
	C768.327820,611.279663 771.900696,635.261414 786.807739,656.784973 
	C801.784729,678.409546 822.226624,690.941345 848.678223,692.315796 
	C844.540222,720.419250 844.112976,748.437378 848.932068,776.233948 
	C770.569580,765.898010 691.463501,767.088135 612.733459,775.276428 
	C623.726990,744.887207 620.599731,713.463379 604.199829,692.696350 
	C609.184143,688.860107 614.489441,685.370422 619.087463,681.116272 
	C629.116760,671.837280 630.827393,659.307495 632.039673,646.517883 
	C634.303650,622.632751 621.315369,606.679016 604.086121,593.480164 
	C578.984741,574.250671 550.311096,565.056152 518.580078,565.094543 
	C499.069183,565.118164 479.595764,564.951111 460.355011,568.885986 
	C446.664948,571.685791 445.759918,571.582397 444.795990,585.270386 
	C443.229736,607.511414 441.884735,629.872803 442.462006,652.131042 
	C443.053986,674.958252 455.040985,686.724060 477.862915,689.943054 
	C487.884003,691.356445 498.024902,691.920410 508.690735,692.924622 
	C501.752777,720.451294 501.329254,748.417053 508.650574,776.519592 
	C415.097809,766.308105 321.897491,766.322083 227.926041,776.481750 
	C234.444733,748.713257 235.280212,720.623291 227.776245,693.206543 
	C239.135025,691.795593 250.106293,691.056335 260.815216,688.970215 
	C281.744507,684.893127 293.279541,671.995850 294.084167,650.679199 
	C295.222778,620.514526 294.343201,590.364624 286.840240,560.870850 
	C284.391388,551.244385 280.529968,542.184265 269.972260,537.408386 
	C286.225433,531.184265 289.116089,516.526489 290.546631,502.605713 
	C292.959167,479.129486 293.938599,455.446838 294.275574,431.833252 
	C294.605225,408.736176 279.002686,397.094788 258.623444,394.070343 
	C248.625778,392.586639 238.429108,392.443756 227.679138,391.646332 
	C235.518295,363.953552 234.092499,336.138397 228.062912,308.359192 
	C321.334564,322.216400 414.531097,322.348175 508.316589,308.362854 
	C501.992371,335.815674 501.241516,363.786163 508.774445,391.667664 
	C497.869446,392.411530 487.391907,392.772919 476.998840,393.907898 
	C454.554016,396.358948 441.834595,409.989044 442.147919,432.410339 
	C442.452484,454.203003 444.067261,475.975464 444.916229,497.764221 
	C445.059998,501.453339 446.775269,502.868835 450.012512,502.983398 
	C462.313629,503.418640 474.618896,504.111237 486.920349,504.067047 
	C502.745117,504.010193 518.568420,503.361542 534.390076,502.892426 
	C535.999023,502.844727 537.807617,502.662109 539.161987,501.899780 
	C570.206726,484.425507 596.969055,462.130829 616.668884,432.091827 
	C619.366882,427.977875 621.551270,423.352966 623.064941,418.670929 
	C626.772217,407.203766 621.131836,397.199097 609.333008,395.134308 
	C600.025818,393.505493 590.487427,393.166534 581.041260,392.381256 
	C578.243225,392.148651 575.409424,392.345398 572.455933,392.345398 
	C578.808594,363.955658 579.415894,336.065247 572.206177,308.911224 
	C656.866760,323.013306 741.587341,322.011688 826.018311,308.025085 
	C819.749329,336.014282 820.127930,363.906891 826.612854,392.159698 
	C811.377625,392.315308 796.934753,396.479187 783.438599,403.703156 
	C757.717957,417.470428 740.379333,438.737823 729.195007,465.347748 
	C728.037903,468.100830 727.118591,470.953888 726.016418,474.157837 
z"/>
</svg>